<svg width="31" height="38" viewBox="0 0 31 38" fill="none" xmlns="http://www.w3.org/2000/svg">
<path d="M7.11703 27.2721C4.51353 25.4361 2.56218 22.8189 1.54572 19.7996C0.529256 16.7804 0.500468 13.5159 1.46353 10.4792C2.42658 7.44245 4.33147 4.79122 6.90219 2.90959C9.47291 1.02796 12.5759 0.0136719 15.7617 0.0136719C18.9475 0.0136719 22.0505 1.02796 24.6212 2.90959C27.192 4.79122 29.0969 7.44245 30.0599 10.4792C31.023 13.5159 30.9942 16.7804 29.9777 19.7996C28.9613 22.8189 27.0099 25.4361 24.4064 27.2721L28.312 36.1971C28.3748 36.34 28.4008 36.4962 28.3879 36.6517C28.375 36.8072 28.3234 36.957 28.2379 37.0875C28.1525 37.2181 28.0358 37.3252 27.8984 37.3993C27.7611 37.4733 27.6074 37.5119 27.4514 37.5115H4.07016C3.91437 37.5117 3.76099 37.4731 3.62386 37.3992C3.48674 37.3253 3.3702 37.2183 3.28478 37.0881C3.19935 36.9578 3.14774 36.8083 3.1346 36.653C3.12147 36.4978 3.14722 36.3418 3.20953 36.199L7.11703 27.2721ZM19.7452 25.9727L22.2427 24.2084C24.1959 22.8318 25.6601 20.869 26.423 18.6044C27.1859 16.3399 27.2079 13.8912 26.4858 11.6133C25.7638 9.33545 24.3352 7.34664 22.407 5.93512C20.4788 4.52361 18.1513 3.76271 15.7617 3.76271C13.3721 3.76271 11.0446 4.52361 9.11644 5.93512C7.18828 7.34664 5.75965 9.33545 5.0376 11.6133C4.31554 13.8912 4.33756 16.3399 5.10047 18.6044C5.86338 20.869 7.32754 22.8318 9.28078 24.2084L11.7764 25.9727L8.36953 33.7615H23.152L19.7452 25.9727ZM8.48391 16.8302L12.1214 15.9209C12.3233 16.7334 12.7913 17.4551 13.4508 17.9708C14.1104 18.4865 14.9235 18.7667 15.7608 18.7667C16.598 18.7667 17.4112 18.4865 18.0708 17.9708C18.7303 17.4551 19.1983 16.7334 19.4002 15.9209L23.0377 16.8302C22.6298 18.4512 21.6923 19.8895 20.3741 20.9171C19.0558 21.9447 17.4322 22.5028 15.7608 22.5028C14.0893 22.5028 12.4657 21.9447 11.1475 20.9171C9.82922 19.8895 8.89181 18.4512 8.48391 16.8302Z" fill="#BE9B0E"/>
</svg>
