<svg width="17" height="17" viewBox="0 0 17 17" fill="none" xmlns="http://www.w3.org/2000/svg">
<path d="M14.5823 12.0893L9.24899 2.75601C9.1327 2.55081 8.96406 2.38013 8.76027 2.26139C8.55649 2.14264 8.32485 2.08008 8.08899 2.08008C7.85313 2.08008 7.62149 2.14264 7.41771 2.26139C7.21392 2.38013 7.04528 2.55081 6.92899 2.75601L1.59566 12.0893C1.47811 12.2929 1.41647 12.5239 1.417 12.759C1.41752 12.9941 1.48017 13.2248 1.59862 13.4279C1.71707 13.6309 1.88709 13.7991 2.09145 13.9152C2.29582 14.0314 2.52726 14.0915 2.76232 14.0893H13.429C13.6629 14.0891 13.8927 14.0273 14.0952 13.9102C14.2977 13.7931 14.4658 13.6247 14.5827 13.4221C14.6995 13.2194 14.761 12.9896 14.761 12.7557C14.7609 12.5217 14.6993 12.2919 14.5823 12.0893Z" stroke="#A16207" stroke-width="1.33333" stroke-linecap="round" stroke-linejoin="round"/>
<path d="M8.0957 6.08887V8.75553" stroke="#A16207" stroke-width="1.33333" stroke-linecap="round" stroke-linejoin="round"/>
<path d="M8.0957 11.4219H8.10237" stroke="#A16207" stroke-width="1.33333" stroke-linecap="round" stroke-linejoin="round"/>
</svg>
