<svg width="33" height="33" viewBox="0 0 33 33" fill="none" xmlns="http://www.w3.org/2000/svg">
<path d="M21.016 17.7188L23.036 29.0868C23.0587 29.2206 23.0399 29.3582 22.9822 29.4811C22.9245 29.604 22.8307 29.7063 22.7133 29.7745C22.5959 29.8426 22.4604 29.8733 22.3251 29.8624C22.1898 29.8515 22.061 29.7995 21.956 29.7134L17.1827 26.1307C16.9523 25.9586 16.6723 25.8656 16.3847 25.8656C16.0971 25.8656 15.8171 25.9586 15.5867 26.1307L10.8054 29.7121C10.7005 29.798 10.5719 29.8499 10.4367 29.8608C10.3015 29.8717 10.1663 29.8412 10.0489 29.7732C9.93158 29.7053 9.83774 29.6032 9.77993 29.4805C9.72212 29.3579 9.70309 29.2205 9.72537 29.0868L11.744 17.7188" stroke="white" stroke-width="2.66667" stroke-linecap="round" stroke-linejoin="round"/>
<path d="M16.3799 19.1973C20.7982 19.1973 24.3799 15.6155 24.3799 11.1973C24.3799 6.77899 20.7982 3.19727 16.3799 3.19727C11.9616 3.19727 8.37988 6.77899 8.37988 11.1973C8.37988 15.6155 11.9616 19.1973 16.3799 19.1973Z" stroke="white" stroke-width="2.66667" stroke-linecap="round" stroke-linejoin="round"/>
</svg>
