<svg width="33" height="33" viewBox="0 0 33 33" fill="none" xmlns="http://www.w3.org/2000/svg">
<path d="M21.016 17.5195L23.036 28.8875C23.0587 29.0214 23.0399 29.159 22.9822 29.2819C22.9245 29.4048 22.8307 29.5071 22.7133 29.5753C22.5959 29.6434 22.4604 29.6741 22.3251 29.6631C22.1898 29.6522 22.061 29.6003 21.956 29.5142L17.1827 25.9315C16.9523 25.7594 16.6723 25.6664 16.3847 25.6664C16.0971 25.6664 15.8171 25.7594 15.5867 25.9315L10.8054 29.5129C10.7005 29.5988 10.5719 29.6507 10.4367 29.6616C10.3015 29.6725 10.1663 29.642 10.0489 29.574C9.93158 29.5061 9.83774 29.404 9.77993 29.2813C9.72212 29.1587 9.70309 29.0213 9.72537 28.8875L11.744 17.5195" stroke="#2563EB" stroke-width="2.66667" stroke-linecap="round" stroke-linejoin="round"/>
<path d="M16.3799 18.998C20.7982 18.998 24.3799 15.4163 24.3799 10.998C24.3799 6.57977 20.7982 2.99805 16.3799 2.99805C11.9616 2.99805 8.37988 6.57977 8.37988 10.998C8.37988 15.4163 11.9616 18.998 16.3799 18.998Z" stroke="#2563EB" stroke-width="2.66667" stroke-linecap="round" stroke-linejoin="round"/>
</svg>
