<svg width="28" height="36" viewBox="0 0 28 36" fill="none" xmlns="http://www.w3.org/2000/svg">
<path d="M5.93162 26.1696C3.50169 24.407 1.68043 21.8943 0.731734 18.9956C-0.216965 16.097 -0.243834 12.9629 0.65502 10.0475C1.55387 7.13205 3.33177 4.58671 5.73111 2.78025C8.13045 0.973777 11.0266 0 14 0C16.9734 0 19.8696 0.973777 22.2689 2.78025C24.6682 4.58671 26.4461 7.13205 27.345 10.0475C28.2438 12.9629 28.217 16.097 27.2683 18.9956C26.3196 21.8943 24.4983 24.407 22.0684 26.1696L25.7136 34.7381C25.7722 34.8753 25.7965 35.0253 25.7844 35.1746C25.7724 35.3239 25.7242 35.4677 25.6445 35.593C25.5647 35.7183 25.4558 35.8212 25.3276 35.8922C25.1994 35.9633 25.056 36.0004 24.9104 36H3.08787C2.94248 36.0002 2.79932 35.9632 2.67133 35.8922C2.54335 35.8212 2.43458 35.7186 2.35485 35.5935C2.27513 35.4684 2.22695 35.3249 2.21469 35.1758C2.20243 35.0268 2.22647 34.877 2.28463 34.7399L5.93162 26.1696ZM7.20738 16.1448C7.58746 17.7018 8.46222 19.0836 9.69283 20.0709C10.9234 21.0582 12.4394 21.5944 14 21.5944C15.5606 21.5944 17.0766 21.0582 18.3072 20.0709C19.5378 19.0836 20.4125 17.7018 20.7926 16.1448L17.3959 15.2718C17.2075 16.0519 16.7707 16.7447 16.1551 17.2398C15.5395 17.735 14.7806 18.004 13.9991 18.004C13.2177 18.004 12.4587 17.735 11.8431 17.2398C11.2276 16.7447 10.7908 16.0519 10.6024 15.2718L7.20738 16.1448Z" fill="#21654A"/>
</svg>
