<svg width="30" height="38" viewBox="0 0 30 38" fill="none" xmlns="http://www.w3.org/2000/svg">
<path d="M6.35531 27.5104C3.75181 25.6744 1.80046 23.0572 0.784 20.0379C-0.232463 17.0186 -0.261251 13.7542 0.701808 10.7175C1.66487 7.68074 3.56975 5.0295 6.14047 3.14787C8.71119 1.26625 11.8142 0.251953 15 0.251953C18.1858 0.251953 21.2888 1.26625 23.8595 3.14787C26.4303 5.0295 28.3351 7.68074 29.2982 10.7175C30.2613 13.7542 30.2325 17.0186 29.216 20.0379C28.1995 23.0572 26.2482 25.6744 23.6447 27.5104L27.5503 36.4354C27.613 36.5783 27.6391 36.7345 27.6262 36.89C27.6132 37.0455 27.5617 37.1953 27.4762 37.3258C27.3908 37.4564 27.2741 37.5635 27.1367 37.6375C26.9994 37.7116 26.8457 37.7501 26.6897 37.7498H3.30844C3.15265 37.75 2.99927 37.7114 2.86214 37.6375C2.72502 37.5635 2.60848 37.4566 2.52306 37.3263C2.43764 37.1961 2.38602 37.0466 2.37288 36.8913C2.35975 36.7361 2.3855 36.58 2.44781 36.4373L6.35531 27.5104ZM18.9834 26.211L21.4809 24.4466C23.4342 23.07 24.8983 21.1072 25.6612 18.8427C26.4242 16.5782 26.4462 14.1295 25.7241 11.8516C25.0021 9.57373 23.5734 7.58492 21.6453 6.1734C19.7171 4.76189 17.3896 4.001 15 4.001C12.6104 4.001 10.2829 4.76189 8.35472 6.1734C6.42656 7.58492 4.99793 9.57373 4.27588 11.8516C3.55382 14.1295 3.57585 16.5782 4.33876 18.8427C5.10166 21.1072 6.56583 23.07 8.51906 24.4466L11.0147 26.211L7.60781 33.9998H22.3903L18.9834 26.211ZM7.72219 17.0685L11.3597 16.1591C11.5616 16.9717 12.0295 17.6933 12.6891 18.2091C13.3486 18.7248 14.1618 19.005 14.9991 19.005C15.8363 19.005 16.6495 18.7248 17.309 18.2091C17.9686 17.6933 18.4366 16.9717 18.6384 16.1591L22.2759 17.0685C21.868 18.6894 20.9306 20.1278 19.6124 21.1554C18.2941 22.183 16.6705 22.7411 14.9991 22.7411C13.3276 22.7411 11.704 22.183 10.3858 21.1554C9.0675 20.1278 8.13009 18.6894 7.72219 17.0685Z" fill="#7765BC"/>
</svg>
