<svg width="24" height="25" viewBox="0 0 24 25" fill="none" xmlns="http://www.w3.org/2000/svg">
<path d="M12 22.2744C17.5228 22.2744 22 17.7973 22 12.2744C22 6.75157 17.5228 2.27441 12 2.27441C6.47715 2.27441 2 6.75157 2 12.2744C2 17.7973 6.47715 22.2744 12 22.2744Z" stroke="#059669" stroke-width="2" stroke-linecap="round" stroke-linejoin="round"/>
<path d="M12 18.2744C15.3137 18.2744 18 15.5881 18 12.2744C18 8.96071 15.3137 6.27441 12 6.27441C8.68629 6.27441 6 8.96071 6 12.2744C6 15.5881 8.68629 18.2744 12 18.2744Z" stroke="#059669" stroke-width="2" stroke-linecap="round" stroke-linejoin="round"/>
<path d="M12 14.2744C13.1046 14.2744 14 13.379 14 12.2744C14 11.1698 13.1046 10.2744 12 10.2744C10.8954 10.2744 10 11.1698 10 12.2744C10 13.379 10.8954 14.2744 12 14.2744Z" stroke="#059669" stroke-width="2" stroke-linecap="round" stroke-linejoin="round"/>
</svg>
