<svg width="33" height="33" viewBox="0 0 33 33" fill="none" xmlns="http://www.w3.org/2000/svg">
<path d="M29.5934 24.5215L18.9267 5.85479C18.6941 5.4444 18.3568 5.10304 17.9493 4.86555C17.5417 4.62806 17.0784 4.50293 16.6067 4.50293C16.135 4.50293 15.6717 4.62806 15.2641 4.86555C14.8566 5.10304 14.5193 5.4444 14.2867 5.85479L3.62002 24.5215C3.38493 24.9286 3.26166 25.3907 3.2627 25.8608C3.26374 26.3309 3.38906 26.7925 3.62595 27.1986C3.86284 27.6047 4.20289 27.9409 4.61162 28.1732C5.02035 28.4056 5.48323 28.5257 5.95336 28.5215H27.2867C27.7546 28.521 28.2141 28.3974 28.6191 28.1632C29.0241 27.9289 29.3603 27.5922 29.594 27.1869C29.8278 26.7816 29.9507 26.322 29.9506 25.8541C29.9505 25.3862 29.8273 24.9266 29.5934 24.5215Z" stroke="#EAB308" stroke-width="2.66667" stroke-linecap="round" stroke-linejoin="round"/>
<path d="M16.6201 12.5215V17.8548" stroke="#EAB308" stroke-width="2.66667" stroke-linecap="round" stroke-linejoin="round"/>
<path d="M16.6201 23.1885H16.6335" stroke="#EAB308" stroke-width="2.66667" stroke-linecap="round" stroke-linejoin="round"/>
</svg>
