<svg width="25" height="24" viewBox="0 0 25 24" fill="none" xmlns="http://www.w3.org/2000/svg">
<path d="M16.1188 12.8945L17.6338 21.4205C17.6508 21.5209 17.6367 21.6241 17.5935 21.7163C17.5502 21.8085 17.4798 21.8852 17.3918 21.9363C17.3037 21.9874 17.2021 22.0104 17.1006 22.0022C16.9992 21.9941 16.9026 21.9551 16.8238 21.8905L13.2438 19.2035C13.071 19.0744 12.8611 19.0047 12.6453 19.0047C12.4296 19.0047 12.2197 19.0744 12.0468 19.2035L8.46084 21.8895C8.38216 21.954 8.2857 21.9929 8.18434 22.0011C8.08297 22.0093 7.98151 21.9864 7.8935 21.9354C7.8055 21.8844 7.73512 21.8079 7.69176 21.7159C7.6484 21.6239 7.63413 21.5208 7.65084 21.4205L9.16484 12.8945" stroke="#D97706" stroke-width="2" stroke-linecap="round" stroke-linejoin="round"/>
<path d="M12.6416 14.0039C15.9553 14.0039 18.6416 11.3176 18.6416 8.00391C18.6416 4.6902 15.9553 2.00391 12.6416 2.00391C9.32789 2.00391 6.6416 4.6902 6.6416 8.00391C6.6416 11.3176 9.32789 14.0039 12.6416 14.0039Z" stroke="#D97706" stroke-width="2" stroke-linecap="round" stroke-linejoin="round"/>
</svg>
