<svg width="33" height="33" viewBox="0 0 33 33" fill="none" xmlns="http://www.w3.org/2000/svg">
<path d="M21.9538 28.5215V25.8548C21.9538 24.4403 21.3919 23.0838 20.3917 22.0836C19.3915 21.0834 18.0349 20.5215 16.6204 20.5215H8.62044C7.20595 20.5215 5.8494 21.0834 4.84921 22.0836C3.84901 23.0838 3.28711 24.4403 3.28711 25.8548V28.5215" stroke="#10B981" stroke-width="2.66667" stroke-linecap="round" stroke-linejoin="round"/>
<path d="M12.6204 15.1882C15.566 15.1882 17.9538 12.8003 17.9538 9.85482C17.9538 6.9093 15.566 4.52148 12.6204 4.52148C9.67492 4.52148 7.28711 6.9093 7.28711 9.85482C7.28711 12.8003 9.67492 15.1882 12.6204 15.1882Z" stroke="#10B981" stroke-width="2.66667" stroke-linecap="round" stroke-linejoin="round"/>
<path d="M29.9531 28.521V25.8543C29.9522 24.6726 29.5589 23.5247 28.8349 22.5908C28.111 21.6568 27.0973 20.9898 25.9531 20.6943" stroke="#10B981" stroke-width="2.66667" stroke-linecap="round" stroke-linejoin="round"/>
<path d="M21.9531 4.69434C23.1003 4.98807 24.1172 5.65527 24.8433 6.59075C25.5694 7.52623 25.9636 8.67678 25.9636 9.861C25.9636 11.0452 25.5694 12.1958 24.8433 13.1313C24.1172 14.0667 23.1003 14.7339 21.9531 15.0277" stroke="#10B981" stroke-width="2.66667" stroke-linecap="round" stroke-linejoin="round"/>
</svg>
