<svg width="31" height="39" viewBox="0 0 31 39" fill="none" xmlns="http://www.w3.org/2000/svg">
<path d="M6.99691 27.8385C4.39341 26.0025 2.44206 23.3853 1.4256 20.366C0.409139 17.3468 0.380351 14.0823 1.34341 11.0456C2.30647 8.00886 4.21135 5.35763 6.78207 3.476C9.35279 1.59437 12.4558 0.580078 15.6416 0.580078C18.8274 0.580078 21.9304 1.59437 24.5011 3.476C27.0719 5.35763 28.9767 8.00886 29.9398 11.0456C30.9029 14.0823 30.8741 17.3468 29.8576 20.366C28.8411 23.3853 26.8898 26.0025 24.2863 27.8385L28.1919 36.7635C28.2546 36.9064 28.2807 37.0626 28.2678 37.2181C28.2548 37.3736 28.2033 37.5234 28.1178 37.654C28.0324 37.7845 27.9157 37.8916 27.7783 37.9657C27.641 38.0397 27.4873 38.0783 27.3313 38.0779H3.95004C3.79426 38.0781 3.64087 38.0395 3.50375 37.9656C3.36662 37.8917 3.25008 37.7847 3.16466 37.6545C3.07924 37.5242 3.02762 37.3747 3.01449 37.2195C3.00135 37.0642 3.0271 36.9082 3.08941 36.7654L6.99691 27.8385ZM19.625 26.5391L22.1225 24.7748C24.0758 23.3982 25.5399 21.4354 26.3028 19.1708C27.0658 16.9063 27.0878 14.4576 26.3657 12.1798C25.6437 9.90185 24.215 7.91304 22.2869 6.50153C20.3587 5.09001 18.0312 4.32912 15.6416 4.32912C13.252 4.32912 10.9245 5.09001 8.99632 6.50153C7.06816 7.91304 5.63954 9.90185 4.91748 12.1798C4.19542 14.4576 4.21745 16.9063 4.98036 19.1708C5.74327 21.4354 7.20743 23.3982 9.16066 24.7748L11.6563 26.5391L8.24941 34.3279H23.0319L19.625 26.5391ZM8.36379 17.3966L12.0013 16.4873C12.2032 17.2998 12.6711 18.0215 13.3307 18.5372C13.9902 19.0529 14.8034 19.3331 15.6407 19.3331C16.4779 19.3331 17.2911 19.0529 17.9506 18.5372C18.6102 18.0215 19.0782 17.2998 19.28 16.4873L22.9175 17.3966C22.5096 19.0176 21.5722 20.4559 20.254 21.4835C18.9357 22.5111 17.3121 23.0692 15.6407 23.0692C13.9692 23.0692 12.3456 22.5111 11.0274 21.4835C9.70911 20.4559 8.77169 19.0176 8.36379 17.3966Z" fill="#FF7183"/>
</svg>
