<svg width="33" height="33" viewBox="0 0 33 33" fill="none" xmlns="http://www.w3.org/2000/svg">
<path d="M27.4666 17.6653C27.4666 24.332 22.8 27.6653 17.2533 29.5986C16.9629 29.6971 16.6474 29.6924 16.36 29.5853C10.8 27.6653 6.1333 24.332 6.1333 17.6653V8.33198C6.1333 7.97836 6.27378 7.63922 6.52383 7.38917C6.77387 7.13912 7.11301 6.99865 7.46663 6.99865C10.1333 6.99865 13.4666 5.39865 15.7866 3.37198C16.0691 3.13064 16.4284 2.99805 16.8 2.99805C17.1715 2.99805 17.5308 3.13064 17.8133 3.37198C20.1466 5.41198 23.4666 6.99865 26.1333 6.99865C26.4869 6.99865 26.8261 7.13912 27.0761 7.38917C27.3262 7.63922 27.4666 7.97836 27.4666 8.33198V17.6653Z" stroke="#059669" stroke-width="2.66667" stroke-linecap="round" stroke-linejoin="round"/>
</svg>
