<?xml version="1.0" encoding="UTF-8"?>
<svg version="1.1" xmlns="http://www.w3.org/2000/svg" width="15" height="15">
<path d="M0 0 C-2 1.33333333 -4 2.66666667 -6 4 C-5.67 5.98 -5.34 7.96 -5 10 C-2.25038489 10.94607807 -2.25038489 10.94607807 1 11 C3.8971941 8.68726558 3.8971941 8.68726558 6 6 C5.51811594 11.54166667 5.51811594 11.54166667 3.375 13.4375 C-0.02409979 14.24254995 -2.62596434 13.81226784 -6 13 C-8.51075066 9.23387401 -8.75472063 6.42708077 -8 2 C-5.41249751 -1.0495565 -3.68979057 -1.44956058 0 0 Z " fill="#BABABA" transform="translate(9,1)"/>
<path d="M0 0 C0.66 0.33 1.32 0.66 2 1 C-0.31 3.31 -2.62 5.62 -5 8 C-6.32 7.34 -7.64 6.68 -9 6 C-9 5.34 -9 4.68 -9 4 C-8.443125 4.268125 -7.88625 4.53625 -7.3125 4.8125 C-6.1678125 4.9053125 -6.1678125 4.9053125 -5 5 C-2.22877725 2.64573501 -2.22877725 2.64573501 0 0 Z " fill="#ECECEC" transform="translate(13,2)"/>
</svg>
