<?xml version="1.0" encoding="UTF-8"?>
<svg xmlns="http://www.w3.org/2000/svg" xmlns:xlink="http://www.w3.org/1999/xlink" width="14px" height="14px" viewBox="0 0 14 14" version="1.1">
<g id="surface1">
<path style=" stroke:none;fill-rule:nonzero;fill:rgb(100%,100%,100%);fill-opacity:1;" d="M 6.785156 -0.0078125 C 6.820312 -0.0078125 6.855469 -0.0078125 6.890625 -0.0117188 C 6.941406 -0.0117188 6.941406 -0.0117188 6.992188 -0.0117188 C 7.019531 -0.0117188 7.050781 -0.0117188 7.078125 -0.0117188 C 7.25 0.0117188 7.355469 0.09375 7.457031 0.222656 C 7.546875 0.351562 7.558594 0.476562 7.546875 0.628906 C 7.488281 0.800781 7.410156 0.9375 7.25 1.027344 C 7.097656 1.089844 6.933594 1.085938 6.769531 1.09375 C 5.132812 1.1875 3.640625 1.875 2.542969 3.101562 C 1.511719 4.289062 1.003906 5.855469 1.097656 7.417969 C 1.164062 8.242188 1.382812 9.035156 1.777344 9.761719 C 1.785156 9.78125 1.796875 9.796875 1.804688 9.816406 C 2.546875 11.207031 3.824219 12.210938 5.324219 12.671875 C 6.792969 13.105469 8.414062 12.953125 9.761719 12.222656 C 9.78125 12.214844 9.796875 12.203125 9.816406 12.195312 C 11.207031 11.453125 12.210938 10.171875 12.671875 8.675781 C 12.824219 8.171875 12.890625 7.660156 12.910156 7.132812 C 12.921875 6.914062 12.941406 6.746094 13.097656 6.589844 C 13.117188 6.574219 13.132812 6.5625 13.152344 6.550781 C 13.171875 6.539062 13.1875 6.523438 13.207031 6.511719 C 13.335938 6.4375 13.472656 6.4375 13.617188 6.464844 C 13.78125 6.511719 13.875 6.617188 13.972656 6.753906 C 14.117188 7.183594 14 7.789062 13.917969 8.230469 C 13.914062 8.253906 13.910156 8.28125 13.90625 8.304688 C 13.707031 9.382812 13.253906 10.402344 12.578125 11.265625 C 12.558594 11.292969 12.535156 11.320312 12.515625 11.347656 C 12.179688 11.765625 11.800781 12.164062 11.375 12.496094 C 11.347656 12.515625 11.324219 12.539062 11.296875 12.558594 C 10.421875 13.257812 9.351562 13.710938 8.257812 13.917969 C 8.234375 13.921875 8.214844 13.925781 8.191406 13.929688 C 7.371094 14.09375 6.421875 14.0625 5.605469 13.890625 C 5.5625 13.882812 5.5625 13.882812 5.519531 13.875 C 4.503906 13.65625 3.550781 13.21875 2.734375 12.578125 C 2.707031 12.558594 2.679688 12.535156 2.652344 12.515625 C 2.234375 12.179688 1.835938 11.800781 1.503906 11.375 C 1.472656 11.335938 1.472656 11.335938 1.441406 11.296875 C 0.742188 10.421875 0.289062 9.351562 0.0820312 8.257812 C 0.078125 8.234375 0.0742188 8.214844 0.0703125 8.191406 C -0.0820312 7.425781 -0.078125 6.503906 0.0820312 5.742188 C 0.0859375 5.714844 0.09375 5.6875 0.0976562 5.660156 C 0.375 4.34375 0.976562 3.125 1.921875 2.15625 C 1.96875 2.105469 2.015625 2.054688 2.066406 2.003906 C 2.257812 1.804688 2.460938 1.625 2.683594 1.457031 C 2.734375 1.421875 2.785156 1.382812 2.835938 1.34375 C 3.066406 1.171875 3.304688 1.015625 3.554688 0.875 C 3.570312 0.863281 3.589844 0.855469 3.605469 0.84375 C 4.3125 0.441406 5.105469 0.1875 5.90625 0.0546875 C 5.925781 0.0507812 5.941406 0.046875 5.960938 0.046875 C 6.234375 0 6.507812 -0.0078125 6.785156 -0.0078125 Z M 6.785156 -0.0078125 "/>
<path style=" stroke:none;fill-rule:nonzero;fill:rgb(100%,100%,100%);fill-opacity:1;" d="M 13.433594 1.769531 C 13.589844 1.839844 13.6875 1.949219 13.753906 2.105469 C 13.761719 2.1875 13.761719 2.1875 13.765625 2.277344 C 13.765625 2.308594 13.765625 2.335938 13.765625 2.367188 C 13.734375 2.59375 13.570312 2.738281 13.417969 2.890625 C 13.394531 2.914062 13.371094 2.9375 13.347656 2.960938 C 13.28125 3.023438 13.21875 3.089844 13.152344 3.152344 C 13.085938 3.222656 13.015625 3.292969 12.945312 3.359375 C 12.8125 3.496094 12.675781 3.632812 12.539062 3.765625 C 12.382812 3.925781 12.222656 4.082031 12.066406 4.242188 C 11.78125 4.523438 11.5 4.804688 11.21875 5.085938 C 10.945312 5.359375 10.671875 5.632812 10.398438 5.90625 C 10.378906 5.921875 10.363281 5.941406 10.347656 5.957031 C 10.3125 5.992188 10.277344 6.023438 10.246094 6.058594 C 10.226562 6.074219 10.210938 6.09375 10.195312 6.109375 C 10.175781 6.125 10.160156 6.144531 10.144531 6.160156 C 9.882812 6.421875 9.621094 6.679688 9.359375 6.941406 C 9.265625 7.035156 9.171875 7.132812 9.078125 7.226562 C 8.925781 7.375 8.777344 7.523438 8.628906 7.675781 C 8.558594 7.742188 8.488281 7.8125 8.421875 7.878906 C 8.347656 7.953125 8.273438 8.027344 8.199219 8.101562 C 8.175781 8.125 8.15625 8.144531 8.132812 8.167969 C 8.019531 8.28125 7.90625 8.386719 7.785156 8.492188 C 7.730469 8.539062 7.679688 8.585938 7.628906 8.636719 C 7.613281 8.65625 7.59375 8.675781 7.574219 8.691406 C 7.546875 8.722656 7.546875 8.722656 7.519531 8.75 C 7.476562 8.792969 7.4375 8.835938 7.394531 8.875 C 7.332031 8.941406 7.269531 9.003906 7.203125 9.070312 C 7.140625 9.132812 7.078125 9.195312 7.019531 9.257812 C 7 9.277344 6.980469 9.296875 6.960938 9.316406 C 6.816406 9.460938 6.714844 9.523438 6.507812 9.523438 C 6.480469 9.523438 6.453125 9.523438 6.425781 9.527344 C 6.238281 9.503906 6.128906 9.394531 6.003906 9.265625 C 5.988281 9.25 5.972656 9.234375 5.960938 9.21875 C 5.863281 9.121094 5.773438 9.019531 5.683594 8.914062 C 5.601562 8.824219 5.515625 8.734375 5.429688 8.644531 C 5.300781 8.503906 5.167969 8.363281 5.042969 8.21875 C 4.957031 8.128906 4.875 8.039062 4.789062 7.945312 C 4.621094 7.769531 4.457031 7.589844 4.292969 7.410156 C 4.242188 7.355469 4.195312 7.300781 4.144531 7.246094 C 4.132812 7.234375 4.121094 7.222656 4.105469 7.207031 C 4.027344 7.121094 3.949219 7.035156 3.867188 6.949219 C 3.839844 6.917969 3.8125 6.886719 3.785156 6.859375 C 3.71875 6.785156 3.652344 6.714844 3.585938 6.644531 C 3.3125 6.351562 3.3125 6.351562 3.296875 6.113281 C 3.304688 5.949219 3.347656 5.808594 3.472656 5.691406 C 3.609375 5.589844 3.738281 5.542969 3.910156 5.550781 C 4.101562 5.589844 4.21875 5.671875 4.351562 5.816406 C 4.367188 5.832031 4.382812 5.851562 4.402344 5.867188 C 4.496094 5.96875 4.589844 6.070312 4.675781 6.171875 C 4.753906 6.261719 4.835938 6.347656 4.914062 6.433594 C 5.082031 6.613281 5.25 6.792969 5.414062 6.972656 C 5.464844 7.027344 5.511719 7.082031 5.5625 7.136719 C 5.574219 7.148438 5.585938 7.160156 5.601562 7.175781 C 5.691406 7.277344 5.785156 7.375 5.878906 7.476562 C 5.890625 7.492188 5.902344 7.507812 5.917969 7.519531 C 5.988281 7.597656 6.058594 7.675781 6.132812 7.75 C 6.144531 7.769531 6.160156 7.785156 6.175781 7.800781 C 6.203125 7.828125 6.230469 7.859375 6.257812 7.890625 C 6.34375 7.980469 6.425781 8.078125 6.507812 8.175781 C 6.648438 8.058594 6.78125 7.933594 6.910156 7.800781 C 6.941406 7.769531 6.941406 7.769531 6.972656 7.738281 C 7.042969 7.671875 7.109375 7.601562 7.179688 7.535156 C 7.230469 7.484375 7.277344 7.4375 7.328125 7.386719 C 7.433594 7.28125 7.539062 7.175781 7.644531 7.070312 C 7.796875 6.914062 7.949219 6.761719 8.105469 6.609375 C 8.351562 6.359375 8.601562 6.109375 8.851562 5.859375 C 8.867188 5.84375 8.882812 5.832031 8.894531 5.816406 C 9.015625 5.695312 9.136719 5.574219 9.257812 5.453125 C 9.363281 5.347656 9.46875 5.242188 9.574219 5.136719 C 9.589844 5.121094 9.605469 5.105469 9.621094 5.089844 C 9.867188 4.84375 10.117188 4.59375 10.363281 4.34375 C 10.515625 4.191406 10.667969 4.039062 10.824219 3.886719 C 10.941406 3.769531 11.058594 3.652344 11.175781 3.535156 C 11.222656 3.488281 11.269531 3.4375 11.316406 3.390625 C 11.382812 3.324219 11.449219 3.257812 11.515625 3.195312 C 11.535156 3.175781 11.550781 3.15625 11.570312 3.136719 C 11.679688 3.03125 11.789062 2.925781 11.902344 2.828125 C 11.957031 2.78125 12.007812 2.730469 12.058594 2.679688 C 12.078125 2.660156 12.097656 2.644531 12.117188 2.625 C 12.136719 2.605469 12.152344 2.585938 12.175781 2.5625 C 12.214844 2.519531 12.257812 2.480469 12.300781 2.4375 C 12.367188 2.371094 12.433594 2.304688 12.496094 2.238281 C 12.5625 2.171875 12.625 2.105469 12.6875 2.042969 C 12.707031 2.023438 12.726562 2.003906 12.746094 1.980469 C 12.949219 1.78125 13.148438 1.679688 13.433594 1.769531 Z M 13.433594 1.769531 "/>
</g>
</svg>
