<?xml version="1.0" encoding="UTF-8"?>
<svg xmlns="http://www.w3.org/2000/svg" xmlns:xlink="http://www.w3.org/1999/xlink" width="14px" height="14px" viewBox="0 0 14 14" version="1.1">
<g id="surface1">
<path style=" stroke:none;fill-rule:nonzero;fill:rgb(95.686275%,26.274511%,20.784314%);fill-opacity:1;" d="M 1.367188 0.109375 C 1.53125 0.222656 1.675781 0.355469 1.816406 0.496094 C 1.851562 0.53125 1.851562 0.53125 1.882812 0.566406 C 1.957031 0.636719 2.03125 0.710938 2.105469 0.785156 C 2.160156 0.839844 2.210938 0.894531 2.265625 0.945312 C 2.378906 1.058594 2.492188 1.175781 2.605469 1.289062 C 2.769531 1.453125 2.9375 1.617188 3.101562 1.785156 C 3.367188 2.050781 3.636719 2.320312 3.902344 2.585938 C 4.164062 2.847656 4.421875 3.109375 4.683594 3.367188 C 4.699219 3.382812 4.714844 3.398438 4.730469 3.417969 C 4.8125 3.496094 4.894531 3.578125 4.972656 3.65625 C 5.640625 4.324219 6.304688 4.992188 6.972656 5.660156 C 7.058594 5.621094 7.113281 5.578125 7.179688 5.515625 C 7.199219 5.496094 7.21875 5.476562 7.238281 5.457031 C 7.265625 5.425781 7.265625 5.425781 7.300781 5.394531 C 7.320312 5.371094 7.34375 5.351562 7.367188 5.328125 C 7.441406 5.253906 7.515625 5.179688 7.585938 5.105469 C 7.640625 5.050781 7.695312 5 7.746094 4.945312 C 7.859375 4.832031 7.976562 4.714844 8.089844 4.601562 C 8.253906 4.433594 8.417969 4.269531 8.585938 4.105469 C 8.851562 3.835938 9.121094 3.566406 9.390625 3.296875 C 9.40625 3.28125 9.421875 3.261719 9.4375 3.246094 C 9.667969 3.019531 9.894531 2.789062 10.121094 2.5625 C 10.136719 2.542969 10.152344 2.527344 10.171875 2.511719 C 10.1875 2.496094 10.203125 2.480469 10.21875 2.464844 C 10.484375 2.195312 10.753906 1.925781 11.019531 1.660156 C 11.1875 1.492188 11.351562 1.328125 11.515625 1.164062 C 11.628906 1.046875 11.742188 0.933594 11.855469 0.820312 C 11.917969 0.757812 11.984375 0.691406 12.050781 0.625 C 12.121094 0.554688 12.191406 0.484375 12.261719 0.414062 C 12.292969 0.382812 12.292969 0.382812 12.324219 0.351562 C 12.53125 0.140625 12.773438 -0.0078125 13.074219 -0.0117188 C 13.324219 -0.0078125 13.574219 0.0664062 13.753906 0.246094 C 13.976562 0.519531 14.023438 0.75 14.003906 1.09375 C 13.976562 1.398438 13.707031 1.640625 13.503906 1.84375 C 13.46875 1.878906 13.46875 1.878906 13.433594 1.910156 C 13.363281 1.984375 13.289062 2.058594 13.214844 2.132812 C 13.160156 2.1875 13.105469 2.238281 13.054688 2.292969 C 12.941406 2.40625 12.824219 2.519531 12.710938 2.632812 C 12.546875 2.796875 12.382812 2.964844 12.214844 3.128906 C 11.949219 3.394531 11.679688 3.664062 11.414062 3.929688 C 11.152344 4.191406 10.890625 4.449219 10.632812 4.710938 C 10.617188 4.726562 10.601562 4.742188 10.582031 4.757812 C 10.503906 4.839844 10.421875 4.921875 10.34375 5 C 9.675781 5.667969 9.007812 6.332031 8.339844 7 C 8.460938 7.144531 8.589844 7.28125 8.726562 7.414062 C 8.757812 7.449219 8.757812 7.449219 8.792969 7.480469 C 8.863281 7.554688 8.9375 7.625 9.011719 7.699219 C 9.0625 7.75 9.113281 7.800781 9.167969 7.855469 C 9.265625 7.953125 9.363281 8.050781 9.460938 8.148438 C 9.652344 8.339844 9.847656 8.53125 10.039062 8.722656 C 10.070312 8.753906 10.097656 8.785156 10.128906 8.8125 C 10.175781 8.859375 10.222656 8.90625 10.265625 8.949219 C 10.441406 9.125 10.613281 9.296875 10.785156 9.46875 C 10.800781 9.484375 10.820312 9.5 10.835938 9.515625 C 11.089844 9.773438 11.347656 10.027344 11.605469 10.28125 C 11.867188 10.546875 12.132812 10.808594 12.394531 11.070312 C 12.558594 11.234375 12.71875 11.394531 12.882812 11.554688 C 12.996094 11.667969 13.105469 11.777344 13.214844 11.890625 C 13.28125 11.953125 13.34375 12.015625 13.410156 12.082031 C 13.480469 12.148438 13.546875 12.21875 13.617188 12.289062 C 13.636719 12.308594 13.660156 12.328125 13.679688 12.347656 C 13.910156 12.585938 14.011719 12.832031 14.011719 13.160156 C 14.007812 13.40625 13.910156 13.597656 13.746094 13.78125 C 13.714844 13.808594 13.679688 13.835938 13.644531 13.863281 C 13.625 13.878906 13.609375 13.890625 13.589844 13.90625 C 13.367188 14.046875 13.078125 14.03125 12.824219 14 C 12.410156 13.894531 12.054688 13.398438 11.765625 13.105469 C 11.710938 13.054688 11.660156 13.003906 11.609375 12.953125 C 11.5 12.839844 11.386719 12.730469 11.277344 12.617188 C 11.117188 12.457031 10.957031 12.296875 10.792969 12.136719 C 10.535156 11.875 10.273438 11.617188 10.015625 11.355469 C 9.761719 11.101562 9.507812 10.851562 9.253906 10.597656 C 9.230469 10.574219 9.230469 10.574219 9.207031 10.550781 C 9.128906 10.472656 9.050781 10.394531 8.972656 10.3125 C 8.324219 9.664062 7.675781 9.015625 7.027344 8.367188 C 6.941406 8.40625 6.886719 8.445312 6.820312 8.511719 C 6.800781 8.53125 6.785156 8.550781 6.765625 8.570312 C 6.734375 8.601562 6.734375 8.601562 6.703125 8.632812 C 6.679688 8.652344 6.660156 8.675781 6.636719 8.699219 C 6.5625 8.773438 6.488281 8.847656 6.414062 8.921875 C 6.363281 8.972656 6.308594 9.027344 6.257812 9.078125 C 6.144531 9.191406 6.03125 9.304688 5.917969 9.421875 C 5.753906 9.585938 5.589844 9.75 5.425781 9.914062 C 5.15625 10.183594 4.890625 10.449219 4.625 10.71875 C 4.605469 10.734375 4.589844 10.75 4.574219 10.765625 C 4.347656 10.996094 4.121094 11.222656 3.894531 11.449219 C 3.878906 11.464844 3.863281 11.480469 3.847656 11.496094 C 3.824219 11.523438 3.824219 11.523438 3.800781 11.546875 C 3.535156 11.8125 3.269531 12.078125 3 12.347656 C 2.835938 12.511719 2.675781 12.675781 2.511719 12.839844 C 2.398438 12.953125 2.285156 13.066406 2.171875 13.179688 C 2.109375 13.242188 2.042969 13.308594 1.980469 13.371094 C 1.910156 13.445312 1.839844 13.515625 1.769531 13.585938 C 1.746094 13.605469 1.726562 13.625 1.707031 13.648438 C 1.441406 13.910156 1.210938 14.007812 0.839844 14.011719 C 0.582031 14.007812 0.429688 13.933594 0.238281 13.765625 C 0.0429688 13.550781 -0.0195312 13.332031 -0.015625 13.046875 C 0.0117188 12.515625 0.519531 12.164062 0.871094 11.8125 C 0.921875 11.761719 0.976562 11.710938 1.027344 11.65625 C 1.140625 11.546875 1.25 11.433594 1.363281 11.320312 C 1.527344 11.160156 1.6875 10.996094 1.851562 10.835938 C 2.113281 10.570312 2.378906 10.308594 2.640625 10.046875 C 2.894531 9.789062 3.152344 9.535156 3.40625 9.277344 C 3.421875 9.261719 3.4375 9.246094 3.457031 9.230469 C 3.535156 9.152344 3.613281 9.074219 3.691406 8.992188 C 4.347656 8.339844 5.003906 7.683594 5.660156 7.027344 C 5.539062 6.882812 5.410156 6.746094 5.277344 6.613281 C 5.253906 6.589844 5.234375 6.570312 5.210938 6.546875 C 5.136719 6.476562 5.066406 6.402344 4.992188 6.332031 C 4.941406 6.277344 4.886719 6.226562 4.835938 6.175781 C 4.722656 6.0625 4.613281 5.953125 4.5 5.839844 C 4.324219 5.664062 4.144531 5.488281 3.96875 5.308594 C 3.910156 5.25 3.847656 5.1875 3.789062 5.128906 C 3.765625 5.105469 3.765625 5.105469 3.742188 5.082031 C 3.570312 4.910156 3.398438 4.738281 3.226562 4.566406 C 3.210938 4.550781 3.191406 4.535156 3.175781 4.519531 C 2.921875 4.265625 2.667969 4.011719 2.410156 3.757812 C 2.148438 3.496094 1.886719 3.234375 1.625 2.972656 C 1.464844 2.808594 1.300781 2.648438 1.140625 2.488281 C 1.027344 2.378906 0.917969 2.265625 0.808594 2.15625 C 0.742188 2.09375 0.679688 2.027344 0.617188 1.964844 C 0.546875 1.894531 0.476562 1.828125 0.40625 1.757812 C 0.386719 1.738281 0.367188 1.71875 0.347656 1.699219 C 0.09375 1.445312 -0.0117188 1.214844 -0.0117188 0.859375 C -0.0078125 0.699219 0.0195312 0.574219 0.109375 0.4375 C 0.117188 0.421875 0.128906 0.402344 0.136719 0.386719 C 0.257812 0.195312 0.457031 0.0742188 0.667969 0.0117188 C 0.914062 -0.0351562 1.148438 -0.015625 1.367188 0.109375 Z M 1.367188 0.109375 "/>
</g>
</svg>
