<svg width="17" height="16" viewBox="0 0 17 16" fill="none" xmlns="http://www.w3.org/2000/svg">
<path d="M8.5 2H3.83333C3.47971 2 3.14057 2.14048 2.89052 2.39052C2.64048 2.64057 2.5 2.97971 2.5 3.33333V12.6667C2.5 13.0203 2.64048 13.3594 2.89052 13.6095C3.14057 13.8595 3.47971 14 3.83333 14H13.1667C13.5203 14 13.8594 13.8595 14.1095 13.6095C14.3595 13.3594 14.5 13.0203 14.5 12.6667V8" stroke="#2563EB" stroke-width="1.33333" stroke-linecap="round" stroke-linejoin="round"/>
<path d="M12.7507 1.75015C13.0159 1.48493 13.3756 1.33594 13.7507 1.33594C14.1257 1.33594 14.4854 1.48493 14.7507 1.75015C15.0159 2.01537 15.1649 2.37508 15.1649 2.75015C15.1649 3.12522 15.0159 3.48493 14.7507 3.75015L8.50065 10.0002L5.83398 10.6668L6.50065 8.00015L12.7507 1.75015Z" stroke="#2563EB" stroke-width="1.33333" stroke-linecap="round" stroke-linejoin="round"/>
</svg>
