<svg width="17" height="16" viewBox="0 0 17 16" fill="none" xmlns="http://www.w3.org/2000/svg">
<path d="M4.6748 5.33398C4.6748 4.27312 5.09623 3.2557 5.84638 2.50556C6.59652 1.75541 7.61394 1.33398 8.67481 1.33398C9.73567 1.33398 10.7531 1.75541 11.5032 2.50556C12.2534 3.2557 12.6748 4.27312 12.6748 5.33398C12.6748 10.0007 14.6748 11.334 14.6748 11.334H2.6748C2.6748 11.334 4.6748 10.0007 4.6748 5.33398Z" stroke="black" stroke-width="1.33333" stroke-linecap="round" stroke-linejoin="round"/>
<path d="M7.54102 14C7.65258 14.2029 7.8166 14.3722 8.01592 14.49C8.21525 14.6079 8.44257 14.6701 8.67414 14.6701C8.90571 14.6701 9.13303 14.6079 9.33235 14.49C9.53168 14.3722 9.69569 14.2029 9.80726 14" stroke="black" stroke-width="1.33333" stroke-linecap="round" stroke-linejoin="round"/>
</svg>
