<?xml version="1.0" encoding="UTF-8"?>
<svg version="1.1" xmlns="http://www.w3.org/2000/svg" width="273" height="254">
<path d="M0 0 C90.09 0 180.18 0 273 0 C273 83.82 273 167.64 273 254 C182.91 254 92.82 254 0 254 C0 170.18 0 86.36 0 0 Z " fill="#FDF2C6" transform="translate(0,0)"/>
<path d="M0 0 C90.09 0 180.18 0 273 0 C273 83.82 273 167.64 273 254 C182.91 254 92.82 254 0 254 C0 170.18 0 86.36 0 0 Z M55.25 53.4453125 C33.88321092 77.70552094 25.22038622 108.04349454 27 140 C29.94814865 168.82194542 45.63077966 196.02466769 67.68798828 214.40673828 C87.04616808 229.82955609 110.365153 238.58779757 135.11035156 238.44604492 C137.36616474 238.43753334 139.61943458 238.46641993 141.875 238.49804688 C151.88387079 238.54588658 160.46153131 237.06581183 170 234 C171.82168701 233.43273193 171.82168701 233.43273193 173.68017578 232.85400391 C187.23772129 228.51908492 199.29855016 221.32249714 210 212 C210.65871094 211.484375 211.31742188 210.96875 211.99609375 210.4375 C232.39295333 194.02151643 244.52188633 166.32906934 248 141 C249.28691802 124.41891097 248.01027454 108.84512658 243 93 C242.62746094 91.7934375 242.25492188 90.586875 241.87109375 89.34375 C232.4880218 62.40419848 210.67584546 40.42333508 185.52441406 27.82275391 C170.52908577 20.78187272 154.76143127 17.82190476 138.3125 17.8125 C136.65057617 17.79413086 136.65057617 17.79413086 134.95507812 17.77539062 C103.77873304 17.72072725 76.6905828 31.31556811 55.25 53.4453125 Z " fill="#F9FBFE" transform="translate(0,0)"/>
<path d="M0 0 C4.41141001 -0.06924888 8.82089937 -0.12886267 13.23242188 -0.16479492 C14.72988307 -0.17978888 16.22730105 -0.20019105 17.72460938 -0.22631836 C27.03498684 -0.38459478 34.62122462 -0.42285706 42.75 4.75 C45.63883339 7.63883339 47.19632246 10.32584204 49 14 C49 14.99 49 15.98 49 17 C50.98 17 52.96 17 55 17 C55 19.64 55 22.28 55 25 C53.35 25 51.7 25 50 25 C50 27.31 50 29.62 50 32 C51.65 32 53.3 32 55 32 C55 34.31 55 36.62 55 39 C54.113125 39 53.22625 39 52.3125 39 C47.97595524 40.30914559 47.47140224 42.08253971 45.328125 45.8671875 C41.60345235 51.84857358 36.52186097 54.57692976 29.91796875 56.5546875 C25.65873463 57.2046911 21.30854732 57 17 57 C17 64.26 17 71.52 17 79 C14.380625 79.020625 11.76125 79.04125 9.0625 79.0625 C8.2362915 79.071604 7.41008301 79.08070801 6.55883789 79.09008789 C4.70566241 79.09723945 2.85250692 79.0502852 1 79 C0 78 0 78 -0.11352539 74.30639648 C-0.11336624 72.66128708 -0.10766988 71.01617269 -0.09765625 69.37109375 C-0.0962413 68.50686295 -0.09482635 67.64263214 -0.09336853 66.75221252 C-0.08775239 63.98060708 -0.07519719 61.2090812 -0.0625 58.4375 C-0.05748708 56.5631522 -0.05292381 54.68880315 -0.04882812 52.81445312 C-0.03777772 48.20960456 -0.0205023 43.60481579 0 39 C-1.98 39 -3.96 39 -6 39 C-6 36.69 -6 34.38 -6 32 C-3.69 32 -1.38 32 1 32 C1 29.69 1 27.38 1 25 C-1.31 25 -3.62 25 -6 25 C-6 22.36 -6 19.72 -6 17 C-4.02 17 -2.04 17 0 17 C0 11.39 0 5.78 0 0 Z " fill="#D9790A" transform="translate(110,91)"/>
<path d="M0 0 C5.61 0 11.22 0 17 0 C17 2.31 17 4.62 17 7 C11.39 7 5.78 7 0 7 C0 4.69 0 2.38 0 0 Z " fill="#FBE9B8" transform="translate(127,116)"/>
<path d="M0 0 C4.62 0 9.24 0 14 0 C14 0.66 14 1.32 14 2 C8.99067246 5.00559652 5.67276511 5.29341888 0 5 C0 3.35 0 1.7 0 0 Z " fill="#FAE7B4" transform="translate(127,130)"/>
<path d="M0 0 C1.58294782 -0.05437607 3.16644256 -0.09296271 4.75 -0.125 C5.63171875 -0.14820312 6.5134375 -0.17140625 7.421875 -0.1953125 C10.1135858 0.00860498 11.69904974 0.63448279 14 2 C14 2.66 14 3.32 14 4 C9.38 4 4.76 4 0 4 C0 2.68 0 1.36 0 0 Z " fill="#FDF0C3" transform="translate(127,104)"/>
</svg>
